<svg width="49" height="38" viewBox="0 0 49 38" fill="none" xmlns="http://www.w3.org/2000/svg">
<g filter="url(#filter0_d_201_22401)">
<rect x="4.63672" width="40" height="30" rx="4" fill="white"/>
<rect x="5.13672" y="0.5" width="39" height="29" rx="3.5" stroke="#B2BCCA"/>
</g>
<path d="M24.6367 29L43.6367 23.25V26C43.6367 27.6569 42.2936 29 40.6367 29H24.6367Z" fill="#FD6020"/>
<path fill-rule="evenodd" clip-rule="evenodd" d="M39.2174 11.3886C40.4471 11.3886 41.1235 11.993 41.1235 13.1347C41.185 14.0078 40.6316 14.7466 39.8937 14.8809L41.5539 17.3657H40.2627L38.8484 14.948H38.7255V17.3657H37.6802V11.3886H39.2174ZM38.7255 14.1421H39.0329C39.7093 14.1421 40.0167 13.8063 40.0167 13.2019C40.0167 12.6646 39.7093 12.3288 39.0329 12.3288H38.7255V14.1421ZM34.0525 17.3657H37.0039V16.3584H35.0978V14.7466H36.9424V13.7392H35.0978V12.396H37.0039V11.3886H34.0525V17.3657ZM30.978 15.4181L29.5638 11.3886H28.457L30.732 17.5001H31.2854L33.5605 11.3886H32.4537L30.978 15.4181ZM18.4959 14.4106C18.4959 16.0896 19.7257 17.4999 21.2629 17.4999C21.7548 17.4999 22.1852 17.3656 22.6156 17.1641V15.821C22.3081 16.2239 21.8777 16.4926 21.3858 16.4926C20.402 16.4926 19.6027 15.6867 19.6027 14.6121V14.4778C19.5412 13.4033 20.3405 12.463 21.3243 12.3959C21.8162 12.3959 22.3081 12.6645 22.6156 13.0675V11.7243C22.2467 11.4557 21.7548 11.3885 21.3243 11.3885C19.7257 11.2542 18.4959 12.6645 18.4959 14.4106ZM16.5898 13.672C15.9749 13.4033 15.7905 13.269 15.7905 12.9332C15.852 12.5303 16.1594 12.1945 16.5283 12.2616C16.8358 12.2616 17.1432 12.4631 17.3892 12.7317L17.9426 11.9258C17.5121 11.5229 16.9588 11.2542 16.4054 11.2542C15.5445 11.1871 14.8067 11.9258 14.7452 12.8661V12.9332C14.7452 13.7391 15.0526 14.2092 16.0364 14.545C16.2824 14.6122 16.5283 14.7465 16.7743 14.8808C16.9588 15.0151 17.0817 15.2166 17.0817 15.4852C17.0817 15.9554 16.7128 16.3583 16.3439 16.3583H16.2824C15.7905 16.3583 15.3601 16.0225 15.1756 15.5524L14.4992 16.2911C14.8682 17.0299 15.606 17.4328 16.3439 17.4328C17.3277 17.5 18.127 16.6941 18.1885 15.6196V15.4181C18.127 14.6122 17.8196 14.2092 16.5898 13.672ZM13.0235 17.3657H14.0688V11.3886H13.0235V17.3657ZM8.16602 11.3886H9.70321H10.0107C11.4864 11.4558 12.6546 12.799 12.5931 14.4108C12.5931 15.2838 12.2242 16.0897 11.6093 16.6942C11.0559 17.1643 10.3796 17.4329 9.70321 17.3658H8.16602V11.3886ZM9.51879 16.3584C10.0107 16.4256 10.5641 16.2241 10.933 15.8883C11.3019 15.4854 11.4864 14.9481 11.4864 14.3437C11.4864 13.8064 11.3019 13.2691 10.933 12.8662C10.5641 12.5304 10.0107 12.3289 9.51879 12.3961H9.21135V16.3584H9.51879Z" fill="#333333"/>
<path fill-rule="evenodd" clip-rule="evenodd" d="M25.7518 11.25C24.2146 11.25 22.9233 12.5932 22.9233 14.3393C22.9233 16.0183 24.1531 17.4286 25.7518 17.4958C27.3505 17.5629 28.5802 16.1526 28.6417 14.4065C28.5802 12.6603 27.3505 11.25 25.7518 11.25V11.25Z" fill="#FD6020"/>
<defs>
<filter id="filter0_d_201_22401" x="0.636719" y="0" width="48" height="38" filterUnits="userSpaceOnUse" color-interpolation-filters="sRGB">
<feFlood flood-opacity="0" result="BackgroundImageFix"/>
<feColorMatrix in="SourceAlpha" type="matrix" values="0 0 0 0 0 0 0 0 0 0 0 0 0 0 0 0 0 0 127 0" result="hardAlpha"/>
<feOffset dy="4"/>
<feGaussianBlur stdDeviation="2"/>
<feComposite in2="hardAlpha" operator="out"/>
<feColorMatrix type="matrix" values="0 0 0 0 0 0 0 0 0 0 0 0 0 0 0 0 0 0 0.25 0"/>
<feBlend mode="normal" in2="BackgroundImageFix" result="effect1_dropShadow_201_22401"/>
<feBlend mode="normal" in="SourceGraphic" in2="effect1_dropShadow_201_22401" result="shape"/>
</filter>
</defs>
</svg>
