<svg width="41" height="30" viewBox="0 0 41 30" fill="none" xmlns="http://www.w3.org/2000/svg">
<rect x="0.71875" y="0.5" width="39" height="29" rx="3.5" fill="white" stroke="#B2BCCA"/>
<path d="M22.8745 14.6323C22.8745 19.2616 19.383 23.0145 15.0759 23.0145C10.7689 23.0145 7.27734 19.2616 7.27734 14.6323C7.27734 10.0029 10.7689 6.25006 15.0759 6.25006C19.383 6.25006 22.8745 10.0029 22.8745 14.6323Z" fill="#ED0006"/>
<path d="M32.9917 14.6323C32.9917 19.2616 29.5002 23.0145 25.1931 23.0145C20.8861 23.0145 17.3945 19.2616 17.3945 14.6323C17.3945 10.0029 20.8861 6.25006 25.1931 6.25006C29.5002 6.25006 32.9917 10.0029 32.9917 14.6323Z" fill="#2F80ED"/>
<path fill-rule="evenodd" clip-rule="evenodd" d="M20.1345 8.25244C21.8113 9.78989 22.8745 12.0776 22.8745 14.6322C22.8745 17.1868 21.8113 19.4745 20.1345 21.012C18.4578 19.4745 17.3945 17.1868 17.3945 14.6322C17.3945 12.0776 18.4578 9.78989 20.1345 8.25244Z" fill="#6C6BBD"/>
</svg>
