<svg width="41" height="30" viewBox="0 0 41 30" fill="none" xmlns="http://www.w3.org/2000/svg">
<rect x="1.30273" y="0.5" width="39" height="29" rx="3.5" fill="white" stroke="#B2BCCA"/>
<path fill-rule="evenodd" clip-rule="evenodd" d="M21.0131 21.0369C19.6201 22.2844 17.8131 23.0375 15.8386 23.0375C11.4329 23.0375 7.86133 19.2879 7.86133 14.6625C7.86133 10.0372 11.4329 6.28754 15.8386 6.28754C17.8131 6.28754 19.6201 7.04066 21.0131 8.28821C22.4061 7.04066 24.213 6.28754 26.1875 6.28754C30.5932 6.28754 34.1648 10.0372 34.1648 14.6625C34.1648 19.2879 30.5932 23.0375 26.1875 23.0375C24.213 23.0375 22.4061 22.2844 21.0131 21.0369Z" fill="#ED0006"/>
<path fill-rule="evenodd" clip-rule="evenodd" d="M21.0132 21.0369C22.7284 19.5008 23.8161 17.215 23.8161 14.6625C23.8161 12.1101 22.7284 9.82428 21.0132 8.28815C22.4062 7.04064 24.2131 6.28754 26.1876 6.28754C30.5933 6.28754 34.1649 10.0372 34.1649 14.6625C34.1649 19.2879 30.5933 23.0375 26.1876 23.0375C24.2131 23.0375 22.4062 22.2844 21.0132 21.0369Z" fill="#F9A000"/>
<path fill-rule="evenodd" clip-rule="evenodd" d="M21.0133 21.0368C22.7285 19.5007 23.8161 17.2149 23.8161 14.6625C23.8161 12.1101 22.7285 9.82434 21.0133 8.28821C19.2981 9.82434 18.2104 12.1101 18.2104 14.6625C18.2104 17.2149 19.2981 19.5007 21.0133 21.0368Z" fill="#FD6020"/>
</svg>
