<svg width="51" height="38" viewBox="0 0 51 38" fill="none" xmlns="http://www.w3.org/2000/svg">
<g filter="url(#filter0_d_201_22449)">
<rect x="4.5" y="0.5" width="41.5" height="29" rx="3.5" fill="white" stroke="#B2BCCA"/>
<path fill-rule="evenodd" clip-rule="evenodd" d="M22.2678 23.0605L22.5437 21.2491L21.9291 21.2343H18.9941L21.0338 7.86724C21.0402 7.82677 21.0607 7.78919 21.0907 7.76246C21.1208 7.73573 21.1593 7.72107 21.1995 7.72107H26.1482C27.7912 7.72107 28.925 8.07436 29.5169 8.77179C29.7944 9.09897 29.9711 9.44096 30.0567 9.81717C30.1464 10.212 30.1479 10.6837 30.0604 11.2591L30.054 11.3009V11.6696L30.3316 11.8322C30.5652 11.9603 30.751 12.1069 30.8934 12.2748C31.1308 12.5546 31.2843 12.9102 31.3492 13.3316C31.4163 13.7651 31.3941 14.2811 31.2843 14.8652C31.1577 15.5369 30.953 16.1221 30.6765 16.6008C30.4223 17.0419 30.0984 17.4079 29.7137 17.6914C29.3465 17.9608 28.9102 18.1654 28.4169 18.2963C27.9389 18.4249 27.3938 18.4898 26.7961 18.4898H26.4109C26.1356 18.4898 25.8682 18.5923 25.6582 18.776C25.4476 18.9636 25.3084 19.2199 25.2656 19.5002L25.2365 19.6633L24.749 22.8561L24.727 22.9733C24.7211 23.0104 24.711 23.0289 24.6963 23.0414C24.6831 23.0528 24.6642 23.0605 24.6457 23.0605H22.2678Z" fill="#28356A"/>
<path fill-rule="evenodd" clip-rule="evenodd" d="M30.5946 11.3434C30.58 11.441 30.563 11.5408 30.5441 11.6433C29.8915 15.1066 27.6586 16.303 24.8071 16.303H23.3551C23.0064 16.303 22.7124 16.5647 22.6582 16.9203L21.7043 23.1743C21.669 23.4079 21.843 23.6182 22.0709 23.6182H24.6461C24.951 23.6182 25.2101 23.3892 25.2581 23.0784L25.2834 22.9432L25.7682 19.763L25.7994 19.5885C25.8469 19.2766 26.1065 19.0475 26.4114 19.0475H26.7965C29.2915 19.0475 31.2447 18.0006 31.8156 14.9708C32.0539 13.7052 31.9305 12.6483 31.2995 11.9051C31.1086 11.681 30.8717 11.495 30.5946 11.3434Z" fill="#2F80ED"/>
<path fill-rule="evenodd" clip-rule="evenodd" d="M29.9115 11.0622C29.8118 11.0321 29.7089 11.0049 29.6034 10.9803C29.4973 10.9563 29.3887 10.9351 29.2768 10.9164C28.8853 10.8511 28.4563 10.8201 27.9969 10.8201H24.1181C24.0225 10.8201 23.9317 10.8424 23.8506 10.8827C23.6716 10.9716 23.5388 11.1466 23.5066 11.3609L22.6814 16.7629L22.6577 16.9203C22.712 16.5647 23.0059 16.3031 23.3546 16.3031H24.8066C27.6582 16.3031 29.891 15.106 30.5436 11.6434C30.5631 11.5409 30.5795 11.4411 30.5941 11.3435C30.429 11.2529 30.2502 11.1755 30.0577 11.1095C30.0101 11.0932 29.961 11.0774 29.9115 11.0622Z" fill="#28356A"/>
<path fill-rule="evenodd" clip-rule="evenodd" d="M23.5068 11.361C23.539 11.1467 23.6719 10.9716 23.8508 10.8833C23.9325 10.8429 24.0227 10.8206 24.1183 10.8206H27.9971C28.4566 10.8206 28.8856 10.8517 29.277 10.9171C29.3889 10.9356 29.4975 10.957 29.6036 10.9809C29.7091 11.0054 29.812 11.0327 29.9117 11.0627C29.9613 11.0779 30.0103 11.0938 30.0583 11.1095C30.2509 11.1755 30.4299 11.2536 30.5949 11.3435C30.7891 10.0637 30.5933 9.19231 29.9239 8.40324C29.1857 7.53444 27.8536 7.16266 26.149 7.16266H21.2001C20.8519 7.16266 20.5549 7.42431 20.5011 7.78051L18.4398 21.285C18.3992 21.5521 18.5986 21.7932 18.8592 21.7932H21.9145L23.5068 11.361Z" fill="#28356A"/>
</g>
<defs>
<filter id="filter0_d_201_22449" x="0" y="0" width="50.5" height="38" filterUnits="userSpaceOnUse" color-interpolation-filters="sRGB">
<feFlood flood-opacity="0" result="BackgroundImageFix"/>
<feColorMatrix in="SourceAlpha" type="matrix" values="0 0 0 0 0 0 0 0 0 0 0 0 0 0 0 0 0 0 127 0" result="hardAlpha"/>
<feOffset dy="4"/>
<feGaussianBlur stdDeviation="2"/>
<feComposite in2="hardAlpha" operator="out"/>
<feColorMatrix type="matrix" values="0 0 0 0 0 0 0 0 0 0 0 0 0 0 0 0 0 0 0.25 0"/>
<feBlend mode="normal" in2="BackgroundImageFix" result="effect1_dropShadow_201_22449"/>
<feBlend mode="normal" in="SourceGraphic" in2="effect1_dropShadow_201_22449" result="shape"/>
</filter>
</defs>
</svg>
