<svg width="41" height="30" viewBox="0 0 41 30" fill="none" xmlns="http://www.w3.org/2000/svg">
<rect x="0.552734" y="0.5" width="39" height="29" rx="3.5" fill="white" stroke="#B2BCCA"/>
<path fill-rule="evenodd" clip-rule="evenodd" d="M12.7 19.8228H10.2768L8.45965 12.2404C8.37341 11.8916 8.19028 11.5833 7.9209 11.438C7.24863 11.0727 6.50784 10.7821 5.69971 10.6355V10.3436H9.60333C10.1421 10.3436 10.5462 10.7821 10.6135 11.2914L11.5563 16.7608L13.9784 10.3436H16.3342L12.7 19.8228ZM17.6812 19.8228H15.3927L17.2771 10.3436H19.5657L17.6812 19.8228ZM22.5264 12.9696C22.5938 12.4591 22.9979 12.1672 23.4693 12.1672C24.2101 12.0939 25.017 12.2405 25.6905 12.6044L26.0945 10.5635C25.4211 10.2716 24.6803 10.125 24.008 10.125C21.7868 10.125 20.1706 11.438 20.1706 13.2603C20.1706 14.6466 21.3154 15.3745 22.1236 15.813C22.9979 16.2503 23.3346 16.5422 23.2672 16.9794C23.2672 17.6353 22.5938 17.9272 21.9215 17.9272C21.1134 17.9272 20.3053 17.7086 19.5656 17.3434L19.1616 19.3856C19.9697 19.7495 20.844 19.8961 21.6521 19.8961C24.1427 19.9681 25.6905 18.6564 25.6905 16.6875C25.6905 14.2081 22.5264 14.0628 22.5264 12.9696ZM33.6996 19.8228L31.8825 10.3436H29.9307C29.5266 10.3436 29.1226 10.6355 28.9879 11.0727L25.623 19.8228H27.9789L28.4491 18.4377H31.3437L31.6131 19.8228H33.6996ZM30.2676 12.8962L30.9398 16.4688H29.0554L30.2676 12.8962Z" fill="#28356A"/>
</svg>
